HIERARCHY
ROOT root
{
	OFFSET 0.000000 0.000000 0.000000
	CHANNELS 6 Xposition Yposition Zposition Zrotation Yrotation Xrotation
	JOINT lhip
	{
		OFFSET 0.058581 -0.082280 -0.017664
		CHANNELS 3 Zrotation Yrotation Xrotation
		JOINT lknee
		{
			OFFSET 0.043451 -0.386469 0.008037
			CHANNELS 3 Zrotation Yrotation Xrotation
			JOINT lankle
			{
				OFFSET -0.014790 -0.426874 -0.037428
				CHANNELS 3 Zrotation Yrotation Xrotation
				JOINT ltoe
				{
					OFFSET 0.041054 -0.060286 0.122042
					CHANNELS 3 Zrotation Yrotation Xrotation
					End Site
					{
						OFFSET 0.000000 0.000000 0.000000
					}
				}
			}
		}
	}
	JOINT rhip
	{
		OFFSET -0.060310 -0.090513 -0.013543
		CHANNELS 3 Zrotation Yrotation Xrotation
		JOINT rknee
		{
			OFFSET -0.043257 -0.383688 -0.004843
			CHANNELS 3 Zrotation Yrotation Xrotation
			JOINT rankle
			{
				OFFSET 0.019056 -0.420046 -0.034562
				CHANNELS 3 Zrotation Yrotation Xrotation
				JOINT rtoe
				{
					OFFSET -0.034840 -0.062106 0.130323
					CHANNELS 3 Zrotation Yrotation Xrotation
					End Site
					{
						OFFSET 0.000000 0.000000 0.000000
					}
				}
			}
		}
	}
	JOINT lowerback
	{
		OFFSET 0.004439 0.124404 -0.038385
		CHANNELS 3 Zrotation Yrotation Xrotation
		JOINT upperback
		{
			OFFSET 0.004488 0.137956 0.026820
			CHANNELS 3 Zrotation Yrotation Xrotation
			JOINT chest
			{
				OFFSET -0.002265 0.056032 0.002855
				CHANNELS 3 Zrotation Yrotation Xrotation
				JOINT lowerneck
				{
					OFFSET -0.013390 0.211636 -0.033468
					CHANNELS 3 Zrotation Yrotation Xrotation
					JOINT upperneck
					{
						OFFSET 0.010113 0.088937 0.050410
						CHANNELS 3 Zrotation Yrotation Xrotation
						End Site
						{
							OFFSET 0.000000 0.000000 0.000000
						}
					}
				}
				JOINT lclavicle
				{
					OFFSET 0.071702 0.114000 -0.018898
					CHANNELS 3 Zrotation Yrotation Xrotation
					JOINT lshoulder
					{
						OFFSET 0.122921 0.045205 -0.019046
						CHANNELS 3 Zrotation Yrotation Xrotation
						JOINT lelbow
						{
							OFFSET 0.255332 -0.015649 -0.022946
							CHANNELS 3 Zrotation Yrotation Xrotation
							JOINT lwrist
							{
								OFFSET 0.265709 0.012698 -0.007375
								CHANNELS 3 Zrotation Yrotation Xrotation
								End Site
								{
									OFFSET 0.000000 0.000000 0.000000
								}
							}
						}
					}
				}
				JOINT rclavicle
				{
					OFFSET -0.082954 0.112472 -0.023707
					CHANNELS 3 Zrotation Yrotation Xrotation
					JOINT rshoulder
					{
						OFFSET -0.113228 0.046853 -0.008472
						CHANNELS 3 Zrotation Yrotation Xrotation
						JOINT relbow
						{
							OFFSET -0.260127 -0.014369 -0.031269
							CHANNELS 3 Zrotation Yrotation Xrotation
							JOINT rwrist
							{
								OFFSET -0.269108 0.006794 -0.006027
								CHANNELS 3 Zrotation Yrotation Xrotation
								End Site
								{
									OFFSET 0.000000 0.000000 0.000000
								}
							}
						}
					}
				}
			}
		}
	}
}
MOTION
Frames: 7
Frame Time: 0.033333
0.189208 0.496374 0.929865 88.178124 10.104654 72.287630 0.733814 -4.298311 -2.835087 -18.931805 -11.670313 47.503687 8.222227 27.006965 -29.075780 0.000000 -0.000000 0.000000 -11.889380 -6.046308 -77.260237 4.276805 -21.775363 98.708281 2.525079 -9.331143 40.760717 0.000000 -0.000000 0.000000 0.228306 -12.669495 40.964767 5.856228 3.440520 0.871003 -2.110831 -1.925276 4.805269 3.653937 -3.196245 11.075158 -5.822807 -1.800891 11.169223 2.982796 19.990861 -3.414533 -27.398716 -5.926121 0.353444 6.835961 -9.975786 -0.300964 -14.524391 0.065148 1.290661 3.982204 -17.105155 -3.578705 16.007593 -3.324063 -3.848546 -1.346991 13.874465 11.384146 9.931322 -7.118815 17.129015 
0.188974 0.496217 0.929934 87.728203 9.961663 72.333647 0.492380 -4.507561 -2.865389 -18.347458 -11.384387 47.173231 9.103800 27.123119 -28.893933 0.000000 -0.000000 0.000000 -11.696529 -5.618138 -77.447294 4.291802 -21.633054 98.044947 2.371920 -9.545842 40.938747 0.000000 -0.000000 0.000000 0.167899 -12.510407 41.001343 5.695446 3.642494 0.640632 -2.179135 -1.904862 4.925334 3.690474 -3.084799 11.338364 -5.588550 -1.784837 10.770799 3.759771 20.579932 -3.367068 -26.705652 -5.780412 -0.174183 6.795314 -8.430043 -0.402513 -16.554113 0.602925 1.861784 3.347195 -17.509813 -3.578224 15.812779 -2.797653 -4.129921 -1.406953 12.643511 11.198655 11.197826 -7.640575 17.133582 
0.188902 0.496219 0.930160 87.475814 9.914680 72.493662 0.193053 -4.738901 -2.970622 -17.995779 -11.587204 47.036561 9.232934 27.548362 -28.428841 0.000000 -0.000000 0.000000 -11.512987 -5.462361 -77.594538 4.358886 -21.528491 97.414186 2.362225 -9.855528 41.156511 0.000000 -0.000000 0.000000 0.200676 -12.604878 40.980906 5.546747 3.697228 0.224798 -2.251916 -1.699395 5.077588 3.446701 -3.138662 11.814580 -5.312100 -1.881685 10.478028 4.361531 21.046118 -3.497463 -25.881614 -5.483307 -0.336898 6.753320 -7.114477 0.050880 -16.697641 1.247650 2.620619 2.800756 -17.892470 -3.428533 15.590885 -2.473454 -4.373214 -1.455346 12.014052 11.233755 11.004494 -8.250785 17.056418 
0.189076 0.496254 0.930984 87.248483 9.758398 72.626165 -0.385001 -4.915827 -2.954516 -17.496073 -12.028790 46.698833 9.217049 28.044290 -28.229021 0.000000 -0.000000 0.000000 -11.510734 -5.428226 -77.588492 4.184006 -21.497343 96.888516 2.531515 -10.048192 41.112924 0.000000 -0.000000 0.000000 0.326135 -12.511408 40.526099 5.482796 3.621479 0.710014 -2.287116 -1.686678 5.116099 3.245002 -2.815600 11.921945 -5.227427 -1.979579 9.709849 4.761489 21.278408 -3.679366 -24.972258 -4.890900 -0.815845 6.619508 -6.368088 -0.653726 -17.622019 1.051107 2.900427 2.326296 -17.674404 -3.710688 15.431479 -2.884624 -4.121078 -1.647174 11.465288 11.149203 11.747836 -7.765906 16.794260 
0.188735 0.496381 0.932223 86.910237 9.850484 72.814791 -0.665565 -5.359330 -3.042714 -17.038093 -12.222267 46.617918 9.087678 28.794189 -28.086411 0.000000 -0.000000 0.000000 -11.280507 -5.178999 -77.552447 4.445824 -21.523884 96.190643 2.441246 -10.149371 41.361335 0.000000 -0.000000 0.000000 0.579827 -12.448391 40.466356 5.518881 3.838883 0.530892 -2.272518 -1.628675 5.262869 2.968605 -2.952376 11.904889 -5.328076 -1.810199 9.887189 5.452670 21.753671 -3.212171 -24.638382 -4.572814 -1.253740 6.713844 -6.261518 -0.805327 -17.896484 0.935550 2.569222 1.973758 -18.145681 -3.649670 14.973439 -2.670605 -4.299538 -1.487181 10.798881 11.367418 11.976501 -7.995969 17.186727 
0.188491 0.496366 0.933527 86.494918 9.971722 72.880921 -0.784304 -5.445969 -3.030586 -16.624693 -12.508072 46.462906 9.173036 29.222059 -27.776226 0.000000 -0.000000 0.000000 -11.134606 -4.769241 -77.530619 4.453812 -21.589989 95.916310 2.347266 -10.473345 41.381044 0.000000 -0.000000 0.000000 0.783054 -12.451858 40.543297 5.488658 4.203742 0.475445 -2.304083 -1.557996 5.317245 2.816660 -3.031032 12.020635 -5.170409 -2.019296 9.511654 5.814431 22.298053 -3.679730 -23.844998 -4.378923 -1.385723 6.751415 -5.711022 -0.695534 -18.413755 0.978767 2.803313 1.856051 -18.460116 -4.048796 14.421880 -2.503675 -4.288542 -1.356090 10.194293 11.767739 12.515056 -8.222864 17.081027 
0.188220 0.496469 0.934381 86.112247 10.040601 72.950009 -0.945757 -5.557579 -3.016051 -16.322102 -12.737808 46.339084 9.183050 29.696258 -27.491217 0.000000 -0.000000 0.000000 -11.075594 -4.467903 -77.636000 4.356542 -21.606226 95.915510 2.279432 -10.735736 41.559122 0.000000 -0.000000 0.000000 0.874683 -12.462752 40.611058 5.539304 4.382868 0.161041 -2.301296 -1.599782 5.625942 2.793409 -2.631150 12.079652 -5.470456 -1.851238 9.448502 6.180056 22.721070 -3.615558 -23.177098 -3.710548 -1.558671 6.742991 -5.594654 -0.910760 -18.545778 1.008339 2.589018 1.550128 -18.521070 -4.072376 14.159490 -2.262797 -3.978039 -1.482848 10.225660 12.018463 12.337016 -8.271102 16.776884 
